<mxfile host="app.diagrams.net" modified="2023-08-16T15:23:54.524Z" agent="Mozilla/5.0 (Macintosh; Intel Mac OS X 10_15_7) AppleWebKit/537.36 (KHTML, like Gecko) Chrome/115.0.0.0 Safari/537.36" etag="y01ea3Lxp8a5u_i1Hziv" version="21.6.8" type="github" pages="2">
  <diagram name="1" id="SgtEmG0GpjzjVtyweG8o">
    <mxGraphModel dx="1964" dy="1139" grid="0" gridSize="10" guides="1" tooltips="1" connect="1" arrows="1" fold="1" page="0" pageScale="1" pageWidth="827" pageHeight="1169" math="0" shadow="0">
      <root>
        <mxCell id="0" />
        <mxCell id="1" parent="0" />
      </root>
    </mxGraphModel>
  </diagram>
  <diagram id="bE5wVsmSxk-BZoCILN0T" name="юзкейсы">
    <mxGraphModel dx="1775" dy="797" grid="0" gridSize="10" guides="1" tooltips="1" connect="1" arrows="1" fold="1" page="0" pageScale="1" pageWidth="827" pageHeight="1169" math="0" shadow="0">
      <root>
        <mxCell id="0" />
        <mxCell id="1" parent="0" />
        <mxCell id="_CpVrrbbG1iA5oKgUDlh-3" style="rounded=0;orthogonalLoop=1;jettySize=auto;html=1;endArrow=none;endFill=0;" edge="1" parent="1" source="_CpVrrbbG1iA5oKgUDlh-1" target="_CpVrrbbG1iA5oKgUDlh-2">
          <mxGeometry relative="1" as="geometry" />
        </mxCell>
        <mxCell id="_CpVrrbbG1iA5oKgUDlh-1" value="Actor" style="shape=umlActor;verticalLabelPosition=bottom;verticalAlign=top;html=1;outlineConnect=0;" vertex="1" parent="1">
          <mxGeometry x="-209" y="131" width="30" height="60" as="geometry" />
        </mxCell>
        <mxCell id="_CpVrrbbG1iA5oKgUDlh-2" value="" style="ellipse;whiteSpace=wrap;html=1;" vertex="1" parent="1">
          <mxGeometry x="54" y="7" width="120" height="80" as="geometry" />
        </mxCell>
      </root>
    </mxGraphModel>
  </diagram>
</mxfile>
